<svg width="0" height="0" class="hidden">
  <symbol xmlns="http://www.w3.org/2000/svg" viewBox="0 0 25 25" id="notifications">
    <g clip-path="url(#clip0_1004_415)">
      <path
        d="M12.5 22.9165C13.6458 22.9165 14.5833 21.979 14.5833 20.8332H10.4167C10.4167 21.979 11.3437 22.9165 12.5 22.9165ZM18.75 16.6665V11.4582C18.75 8.26025 17.0417 5.58317 14.0625 4.87484V4.1665C14.0625 3.30192 13.3646 2.604 12.5 2.604C11.6354 2.604 10.9375 3.30192 10.9375 4.1665V4.87484C7.94791 5.58317 6.24999 8.24984 6.24999 11.4582V16.6665L4.90624 18.0103C4.24999 18.6665 4.70833 19.7915 5.63541 19.7915H19.3542C20.2812 19.7915 20.75 18.6665 20.0937 18.0103L18.75 16.6665Z"></path>
    </g>
    <defs>
      <clipPath id="clip0_1004_415">
        <rect width="25" height="25"></rect>
      </clipPath>
    </defs>
  </symbol>
  <symbol xmlns="http://www.w3.org/2000/svg" viewBox="0 0 25 25" id="people">
    <g clip-path="url(#clip0_1004_406)">
      <path
        d="M16.6666 11.4585C18.3958 11.4585 19.7812 10.0627 19.7812 8.3335C19.7812 6.60433 18.3958 5.2085 16.6666 5.2085C14.9375 5.2085 13.5416 6.60433 13.5416 8.3335C13.5416 10.0627 14.9375 11.4585 16.6666 11.4585ZM8.33329 11.4585C10.0625 11.4585 11.4479 10.0627 11.4479 8.3335C11.4479 6.60433 10.0625 5.2085 8.33329 5.2085C6.60413 5.2085 5.20829 6.60433 5.20829 8.3335C5.20829 10.0627 6.60413 11.4585 8.33329 11.4585ZM8.33329 13.5418C5.90621 13.5418 1.04163 14.7606 1.04163 17.1877V18.7502C1.04163 19.3231 1.51038 19.7918 2.08329 19.7918H14.5833C15.1562 19.7918 15.625 19.3231 15.625 18.7502V17.1877C15.625 14.7606 10.7604 13.5418 8.33329 13.5418ZM16.6666 13.5418C16.3645 13.5418 16.0208 13.5627 15.6562 13.5939C15.677 13.6043 15.6875 13.6252 15.6979 13.6356C16.8854 14.5002 17.7083 15.6564 17.7083 17.1877V18.7502C17.7083 19.1147 17.6354 19.4689 17.5208 19.7918H22.9166C23.4895 19.7918 23.9583 19.3231 23.9583 18.7502V17.1877C23.9583 14.7606 19.0937 13.5418 16.6666 13.5418Z"></path>
    </g>
    <defs>
      <clipPath id="clip0_1004_406">
        <rect width="25" height="25"></rect>
      </clipPath>
    </defs>
  </symbol>
  <symbol xmlns="http://www.w3.org/2000/svg" viewBox="0 0 7 12" id="arrow">
    <path
      d="M0.29002 2.12002L4.17002 6.00002L0.29002 9.88002C-0.0999802 10.27 -0.0999803 10.9 0.29002 11.29C0.680019 11.68 1.31002 11.68 1.70002 11.29L6.29002 6.70002C6.68002 6.31002 6.68002 5.68002 6.29002 5.29002L1.70002 0.70002C1.31002 0.31002 0.68002 0.31002 0.29002 0.70002C-0.0899797 1.09002 -0.0999795 1.73002 0.29002 2.12002Z"
    ></path>
  </symbol>
  <symbol xmlns="http://www.w3.org/2000/svg" viewBox="0 0 15 15" id="close">
    <path
      d="M14.0625 0.947917C13.6562 0.541667 13 0.541667 12.5937 0.947917L7.5 6.03125L2.40625 0.9375C2 0.53125 1.34375 0.53125 0.9375 0.9375C0.53125 1.34375 0.53125 2 0.9375 2.40625L6.03125 7.5L0.9375 12.5937C0.53125 13 0.53125 13.6562 0.9375 14.0625C1.34375 14.4687 2 14.4687 2.40625 14.0625L7.5 8.96875L12.5937 14.0625C13 14.4687 13.6562 14.4687 14.0625 14.0625C14.4687 13.6562 14.4687 13 14.0625 12.5937L8.96875 7.5L14.0625 2.40625C14.4583 2.01042 14.4583 1.34375 14.0625 0.947917Z"
    ></path>
  </symbol>
  <symbol xmlns="http://www.w3.org/2000/svg" viewBox="0 0 19 16" id="content_copy">
    <path
      d="M5.31931 0.0561523H16.9344C18.0959 0.0561523 18.3423 0.682891 18.3423 1.4489V10.5018C18.3423 10.8848 18.2191 11.3496 17.6383 11.3496C17.0576 11.3496 16.9344 10.8848 16.9344 10.5018V2.14528C16.9344 1.76227 16.4593 1.4489 15.8785 1.4489H5.31931C4.73856 1.4489 4.2634 1.13554 4.2634 0.752529C4.2634 0.369522 4.73856 0.0561523 5.31931 0.0561523ZM2.15158 2.84169H13.7667C14.9282 2.84169 15.5265 3.46843 15.5265 4.23444V13.9837C15.5265 14.7497 14.9282 15.3765 13.7667 15.3765H2.15158C0.990065 15.3765 0.743641 14.7497 0.743641 13.9837V4.23444C0.743641 3.46843 0.990065 2.84169 2.15158 2.84169ZM3.20749 13.9837H12.7108C13.2915 13.9837 13.7667 13.6703 13.7667 13.2873V4.93082C13.7667 4.54781 13.2915 4.23444 12.7108 4.23444H3.20749C2.62674 4.23444 2.15158 4.54781 2.15158 4.93082V13.2873C2.15158 13.6703 2.62674 13.9837 3.20749 13.9837Z"
    ></path>
  </symbol>
  <symbol xmlns="http://www.w3.org/2000/svg" viewBox="0 0 13 3" id="minimize">
    <path
      d="M1.29167 0.626465H11.7083C12.2812 0.626465 12.75 1.09521 12.75 1.66813C12.75 2.24105 12.2812 2.7098 11.7083 2.7098H1.29167C0.71875 2.7098 0.25 2.24105 0.25 1.66813C0.25 1.09521 0.71875 0.626465 1.29167 0.626465Z"
    ></path>
  </symbol>
  <symbol xmlns="http://www.w3.org/2000/svg" viewBox="0 0 14 26" id="facebook-icon">
    <path
      d="M12.5037 9.25005H9.5V6.75005C9.5 5.46005 9.605 4.64755 11.4537 4.64755H12.5387C13.2287 4.64755 13.7887 4.08755 13.7887 3.39755V1.83005C13.7887 1.1763 13.2875 0.617547 12.635 0.573797C11.88 0.522547 11.1237 0.498797 10.3662 0.500047C6.975 0.500047 4.5 2.5713 4.5 6.3738V9.25005H2C1.31 9.25005 0.75 9.81005 0.75 10.5V13C0.75 13.69 1.31 14.25 2 14.25L4.5 14.2488V24.25C4.5 24.9401 5.06 25.5 5.75 25.5H8.25C8.94 25.5 9.5 24.9401 9.5 24.25V14.2463L12.2175 14.245C12.8525 14.245 13.3862 13.7688 13.4587 13.1375L13.745 10.6425C13.8312 9.9013 13.2512 9.25005 12.5037 9.25005Z"
    ></path>
  </symbol>
  <symbol xmlns="http://www.w3.org/2000/svg" viewBox="0 0 21 22" id="twitter-icon">
    <path
      d="M1.13831 0.5C0.38348 0.5 -0.0589785 1.35023 0.372688 1.96973L7.35902 11.9548L0.345344 20.1533C-0.108489 20.683 0.267469 21.5 0.965136 21.5H1.73988C2.08171 21.5 2.40688 21.35 2.62855 21.0898L8.73988 13.9303L13.3405 20.5042C13.778 21.1272 14.4916 21.5 15.2522 21.5H19.1419C19.8967 21.5 20.3392 20.6509 19.9075 20.0326L12.5361 9.48242L19.2171 1.65527C19.6044 1.20027 19.2812 0.5 18.6839 0.5H17.6972C17.3566 0.5 17.0325 0.648878 16.8108 0.907878L11.1621 7.51139L6.96025 1.49805C6.52392 0.872713 5.81147 0.5 5.04847 0.5H1.13831Z"
    ></path>
  </symbol>
  <symbol xmlns="http://www.w3.org/2000/svg" viewBox="0 0 20 20" id="date_range">
    <g clip-path="url(#clip0_460_15472)">
      <path
        d="M15.8333 3.33268H15V2.49935C15 2.04102 14.625 1.66602 14.1667 1.66602C13.7083 1.66602 13.3333 2.04102 13.3333 2.49935V3.33268H6.66667V2.49935C6.66667 2.04102 6.29167 1.66602 5.83333 1.66602C5.375 1.66602 5 2.04102 5 2.49935V3.33268H4.16667C3.24167 3.33268 2.50833 4.08268 2.50833 4.99935L2.5 16.666C2.5 17.5827 3.24167 18.3327 4.16667 18.3327H15.8333C16.75 18.3327 17.5 17.5827 17.5 16.666V4.99935C17.5 4.08268 16.75 3.33268 15.8333 3.33268ZM15.8333 15.8327C15.8333 16.291 15.4583 16.666 15 16.666H5C4.54167 16.666 4.16667 16.291 4.16667 15.8327V7.49935H15.8333V15.8327ZM5.83333 9.16602H7.5V10.8327H5.83333V9.16602ZM9.16667 9.16602H10.8333V10.8327H9.16667V9.16602ZM12.5 9.16602H14.1667V10.8327H12.5V9.16602Z"
      ></path>
    </g>
    <defs>
      <clipPath id="clip0_460_15472">
        <rect width="20" height="20"></rect>
      </clipPath>
    </defs>
  </symbol>
  <symbol xmlns="http://www.w3.org/2000/svg" viewBox="0 0 21 22" id="stars">
    <g clip-path="url(#clip0_770_11303)">
      <path
        d="M10.4912 2.75C15.0541 2.75 18.75 6.44647 18.75 11C18.75 15.5535 15.0541 19.25 10.4912 19.25C5.93802 19.25 2.25 15.5545 2.25 11C2.25 6.4455 5.93802 2.75002 10.4912 2.75ZM11.3623 5.63379C11.0415 4.8685 9.95726 4.86827 9.63672 5.63379L8.47656 8.375L5.50488 8.62891L5.50195 8.62988C4.68385 8.7045 4.34228 9.7272 4.96387 10.2734L4.9668 10.2754L7.21484 12.2217L6.53906 15.1309C6.35081 15.9417 7.23263 16.57 7.93945 16.1436L7.94043 16.1445L10.5 14.6025L13.0596 16.1445V16.1436C13.7332 16.5508 14.5304 16.0058 14.4746 15.2783L14.4521 15.1309L13.7754 12.2129L16.0215 10.2686L16.0225 10.2695C16.6611 9.72469 16.3177 8.69586 15.498 8.62109L15.4951 8.62012L12.5225 8.36621L11.3623 5.63379Z"
        stroke="#76808C"></path>
    </g>
    <defs>
      <clipPath id="clip0_770_11303">
        <rect width="21" height="21" transform="translate(0 0.5)"></rect>
      </clipPath>
    </defs>
  </symbol>
  <symbol xmlns="http://www.w3.org/2000/svg" viewBox="0 0 20 20" id="timelapse">
    <g clip-path="url(#clip0_460_15478)">
      <path
        d="M13.5332 6.46602C12.5582 5.49102 11.2832 4.99935 9.99984 4.99935V9.99935L6.4665 13.5327C8.4165 15.4827 11.5832 15.4827 13.5415 13.5327C15.4915 11.5827 15.4915 8.41602 13.5332 6.46602ZM9.99984 1.66602C5.39984 1.66602 1.6665 5.39935 1.6665 9.99935C1.6665 14.5993 5.39984 18.3327 9.99984 18.3327C14.5998 18.3327 18.3332 14.5993 18.3332 9.99935C18.3332 5.39935 14.5998 1.66602 9.99984 1.66602ZM9.99984 16.666C6.3165 16.666 3.33317 13.6827 3.33317 9.99935C3.33317 6.31602 6.3165 3.33268 9.99984 3.33268C13.6832 3.33268 16.6665 6.31602 16.6665 9.99935C16.6665 13.6827 13.6832 16.666 9.99984 16.666Z"
      ></path>
    </g>
    <defs>
      <clipPath id="clip0_460_15478">
        <rect width="20" height="20"></rect>
      </clipPath>
    </defs>
  </symbol>
  <symbol xmlns="http://www.w3.org/2000/svg" viewBox="0 0 15 15" id="search-icon">
    <path
      d="M10.9167 9.6667H10.2584L10.025 9.4417C11.025 8.27503 11.5417 6.68337 11.2584 4.9917C10.8667 2.67503 8.93337 0.825033 6.60003 0.5417C3.07503 0.108366 0.108366 3.07503 0.5417 6.60003C0.825033 8.93337 2.67503 10.8667 4.9917 11.2584C6.68337 11.5417 8.27503 11.025 9.4417 10.025L9.6667 10.2584V10.9167L13.2084 14.4584C13.55 14.8 14.1084 14.8 14.45 14.4584C14.7917 14.1167 14.7917 13.5584 14.45 13.2167L10.9167 9.6667ZM5.9167 9.6667C3.8417 9.6667 2.1667 7.9917 2.1667 5.9167C2.1667 3.8417 3.8417 2.1667 5.9167 2.1667C7.9917 2.1667 9.6667 3.8417 9.6667 5.9167C9.6667 7.9917 7.9917 9.6667 5.9167 9.6667Z"
    ></path>
  </symbol>
  <symbol xmlns="http://www.w3.org/2000/svg" viewBox="0 0 22 22" id="settings-icon">
    <path
      d="M19.0491 12.0615C19.0924 11.7148 19.1249 11.3682 19.1249 10.9998C19.1249 10.6315 19.0924 10.2848 19.0491 9.93817L21.3349 8.15067C21.5408 7.98817 21.5949 7.69567 21.4649 7.45734L19.2983 3.709C19.1683 3.47067 18.8758 3.384 18.6374 3.47067L15.9399 4.554C15.3766 4.12067 14.7699 3.76317 14.1091 3.49234L13.6974 0.621504C13.6649 0.361504 13.4374 0.166504 13.1666 0.166504H8.83328C8.56245 0.166504 8.33495 0.361504 8.30245 0.621504L7.89078 3.49234C7.22995 3.76317 6.62328 4.1315 6.05995 4.554L3.36245 3.47067C3.11328 3.37317 2.83162 3.47067 2.70162 3.709L0.534948 7.45734C0.394115 7.69567 0.459115 7.98817 0.664948 8.15067L2.95078 9.93817C2.90745 10.2848 2.87495 10.6423 2.87495 10.9998C2.87495 11.3573 2.90745 11.7148 2.95078 12.0615L0.664948 13.849C0.459115 14.0115 0.404948 14.304 0.534948 14.5423L2.70162 18.2907C2.83162 18.529 3.12411 18.6157 3.36245 18.529L6.05995 17.4457C6.62328 17.879 7.22995 18.2365 7.89078 18.5073L8.30245 21.3782C8.33495 21.6382 8.56245 21.8332 8.83328 21.8332H13.1666C13.4374 21.8332 13.6649 21.6382 13.6974 21.3782L14.1091 18.5073C14.7699 18.2365 15.3766 17.8682 15.9399 17.4457L18.6374 18.529C18.8866 18.6265 19.1683 18.529 19.2983 18.2907L21.4649 14.5423C21.5949 14.304 21.5408 14.0115 21.3349 13.849L19.0491 12.0615ZM10.9999 14.7915C8.90912 14.7915 7.20828 13.0907 7.20828 10.9998C7.20828 8.909 8.90912 7.20817 10.9999 7.20817C13.0908 7.20817 14.7916 8.909 14.7916 10.9998C14.7916 13.0907 13.0908 14.7915 10.9999 14.7915Z"
    ></path>
  </symbol>
  <symbol xmlns="http://www.w3.org/2000/svg" viewBox="0 0 21 19" id="whish_heart_icon">
    <path
      d="M18.1602 1.48998C15.5202 -0.310017 12.2602 0.529983 10.5002 2.58998C8.74021 0.529983 5.48021 -0.320017 2.84021 1.48998C1.44021 2.44998 0.560213 4.06998 0.500213 5.77998C0.360213 9.65998 3.80021 12.77 9.05021 17.54L9.15021 17.63C9.91021 18.32 11.0802 18.32 11.8402 17.62L11.9502 17.52C17.2002 12.76 20.6302 9.64998 20.5002 5.76998C20.4402 4.06998 19.5602 2.44998 18.1602 1.48998ZM10.6002 16.05L10.5002 16.15L10.4002 16.05C5.64021 11.74 2.50021 8.88998 2.50021 5.99998C2.50021 3.99998 4.00021 2.49998 6.00021 2.49998C7.54021 2.49998 9.04021 3.48998 9.57021 4.85998H11.4402C11.9602 3.48998 13.4602 2.49998 15.0002 2.49998C17.0002 2.49998 18.5002 3.99998 18.5002 5.99998C18.5002 8.88998 15.3602 11.74 10.6002 16.05Z"
    ></path>
  </symbol>
  <symbol xmlns="http://www.w3.org/2000/svg" viewBox="0 0 26 25" id="windows_icon">
    <path
      d="M20.3893 2.08534C20.2383 2.07831 20.0859 2.08752 19.9336 2.11383L13.8626 3.17177C13.3637 3.25927 13 3.69091 13 4.19716V10.4166C13 10.9916 13.4667 11.4583 14.0417 11.4583H21.3333C21.9083 11.4583 22.375 10.9916 22.375 10.4166V4.16664C22.375 3.54998 22.1043 2.96846 21.6324 2.57159C21.2785 2.27393 20.8423 2.10644 20.3893 2.08534ZM9.93197 3.88385C9.855 3.87983 9.77565 3.88416 9.69596 3.89809L5.35026 4.65492C4.35339 4.82888 3.625 5.69524 3.625 6.70774V10.4166C3.625 10.9916 4.09167 11.4583 4.66667 11.4583H9.875C10.45 11.4583 10.9167 10.9916 10.9167 10.4166V4.92348C10.9167 4.35746 10.4707 3.91193 9.93197 3.88385ZM4.66667 13.5416C4.09167 13.5416 3.625 14.0083 3.625 14.5833V18.2922C3.625 19.3047 4.35234 20.1711 5.35026 20.345L9.69596 21.1019C10.3335 21.2123 10.9167 20.7233 10.9167 20.0765V14.5833C10.9167 14.0083 10.45 13.5416 9.875 13.5416H4.66667ZM14.0417 13.5416C13.4667 13.5416 13 14.0083 13 14.5833V20.8028C13 21.309 13.3637 21.7417 13.8626 21.8282L19.9336 22.8861C20.0534 22.907 20.1739 22.9187 20.2937 22.9187C20.7802 22.9187 21.2532 22.7471 21.6324 22.4284C22.1043 22.0304 22.375 21.4489 22.375 20.8333V14.5833C22.375 14.0083 21.9083 13.5416 21.3333 13.5416H14.0417Z"
    ></path>
  </symbol>
  <symbol xmlns="http://www.w3.org/2000/svg" viewBox="0 0 13 13" id="add_icon">
    <path
      d="M11.3333 7.16667H7.16667V11.3333C7.16667 11.7917 6.79167 12.1667 6.33333 12.1667C5.875 12.1667 5.5 11.7917 5.5 11.3333V7.16667H1.33333C0.875 7.16667 0.5 6.79167 0.5 6.33333C0.5 5.875 0.875 5.5 1.33333 5.5H5.5V1.33333C5.5 0.875 5.875 0.5 6.33333 0.5C6.79167 0.5 7.16667 0.875 7.16667 1.33333V5.5H11.3333C11.7917 5.5 12.1667 5.875 12.1667 6.33333C12.1667 6.79167 11.7917 7.16667 11.3333 7.16667Z"
    ></path>
  </symbol>
  <symbol xmlns="http://www.w3.org/2000/svg"  viewBox="0 0 23 16" id='view_eye'>
    <path
      d="M11.75 0.5C6.75 0.5 2.48 3.61 0.75 8C2.48 12.39 6.75 15.5 11.75 15.5C16.75 15.5 21.02 12.39 22.75 8C21.02 3.61 16.75 0.5 11.75 0.5ZM11.75 13C8.99 13 6.75 10.76 6.75 8C6.75 5.24 8.99 3 11.75 3C14.51 3 16.75 5.24 16.75 8C16.75 10.76 14.51 13 11.75 13ZM11.75 5C10.09 5 8.75 6.34 8.75 8C8.75 9.66 10.09 11 11.75 11C13.41 11 14.75 9.66 14.75 8C14.75 6.34 13.41 5 11.75 5Z"
       />
  </symbol>
  <symbol  xmlns="http://www.w3.org/2000/svg" viewBox="0 0 26 25" id="clock_icon">
    <path d="M12.9875 0C6.0875 0 0.5 5.6 0.5 12.5C0.5 19.4 6.0875 25 12.9875 25C19.9 25 25.5 19.4 25.5 12.5C25.5 5.6 19.9 0 12.9875 0ZM13 22.5C7.475 22.5 3 18.025 3 12.5C3 6.975 7.475 2.5 13 2.5C18.525 2.5 23 6.975 23 12.5C23 18.025 18.525 22.5 13 22.5ZM12.725 6.25H12.65C12.15 6.25 11.75 6.65 11.75 7.15V13.05C11.75 13.4875 11.975 13.9 12.3625 14.125L17.55 17.2375C17.975 17.4875 18.525 17.3625 18.775 16.9375C19.0375 16.5125 18.9 15.95 18.4625 15.7L13.625 12.825V7.15C13.625 6.65 13.225 6.25 12.725 6.25Z" ></path>
  </symbol>
  <symbol  xmlns="http://www.w3.org/2000/svg" viewBox="0 0 20 21" id="filter_icon">
    <path d="M0.496062 2.42484C3.35981 6.10328 7.59372 11.5469 7.59372 11.5469V17.7188C7.59372 19.0766 8.70466 20.1875 10.0625 20.1875C11.4203 20.1875 12.5312 19.0766 12.5312 17.7188V11.5469C12.5312 11.5469 16.7651 6.10328 19.6289 2.42484C20.2584 1.61016 19.6783 0.4375 18.6414 0.4375H1.47122C0.446687 0.4375 -0.133469 1.61016 0.496062 2.42484Z" ></path>
  </symbol>
  <symbol  xmlns="http://www.w3.org/2000/svg" viewBox="0 0 26 25" id="play_icon">
    <path d="M11.5 17.375L17.3375 13C17.675 12.75 17.675 12.25 17.3375 12L11.5 7.625C11.0875 7.3125 10.5 7.6125 10.5 8.125V16.875C10.5 17.3875 11.0875 17.6875 11.5 17.375ZM13 0C6.1 0 0.5 5.6 0.5 12.5C0.5 19.4 6.1 25 13 25C19.9 25 25.5 19.4 25.5 12.5C25.5 5.6 19.9 0 13 0ZM13 22.5C7.4875 22.5 3 18.0125 3 12.5C3 6.9875 7.4875 2.5 13 2.5C18.5125 2.5 23 6.9875 23 12.5C23 18.0125 18.5125 22.5 13 22.5Z" ></path>
  </symbol>
  <symbol  xmlns="http://www.w3.org/2000/svg" viewBox="0 0 30 31" id="grid_view">
    <g clip-path="url(#clip0_375_2495)">
      <path d="M11.5384 24H16.7307C17.5384 24 18.1993 23.4009 18.1993 22.6686L18.1994 17.4078C18.1994 16.6756 17.5386 16.0765 16.7309 16.0765H11.5385C10.7308 16.0765 10.07 16.6756 10.07 17.4078L10.0698 22.6686C10.0698 23.4009 10.7307 24 11.5384 24ZM20.7692 24H26.2237C27.0314 24 27.6922 23.4009 27.6922 22.6686L27.6924 17.4078C27.6924 16.6756 27.0316 16.0765 26.2239 16.0765H20.7694C19.9617 16.0765 19.3009 16.6756 19.3009 17.4078L19.3007 22.6686C19.3007 23.4009 19.9615 24 20.7692 24ZM11.5385 15.1001H16.7309C17.5386 15.1001 18.1994 14.501 18.1994 13.7688L18.1994 8.33136C18.1994 7.59911 17.5386 7 16.7309 7H11.5385C10.7308 7 10.07 7.59911 10.07 8.33136L10.07 13.7688C10.07 14.501 10.7308 15.1001 11.5385 15.1001ZM19.3008 8.33136L19.3009 13.7688C19.3009 14.501 19.9617 15.1001 20.7694 15.1001H26.2239C27.0316 15.1001 27.6924 14.501 27.6924 13.7688L27.6924 8.33136C27.6924 7.59911 27.0316 7 26.2239 7H20.7694C19.9617 7 19.3008 7.59911 19.3008 8.33136Z" ></path>
      <path d="M7.5 17.999H5C4.3125 17.999 3.75 17.4365 3.75 16.749V14.249C3.75 13.5615 4.3125 12.999 5 12.999H7.5C8.1875 12.999 8.75 13.5615 8.75 14.249V16.749C8.75 17.4365 8.1875 17.999 7.5 17.999Z" ></path>
      <path d="M7.5 23.999H5C4.3125 23.999 3.75 23.4365 3.75 22.749V20.249C3.75 19.5615 4.3125 18.999 5 18.999H7.5C8.1875 18.999 8.75 19.5615 8.75 20.249V22.749C8.75 23.4365 8.1875 23.999 7.5 23.999Z" ></path>
      <path d="M7.5 11.999H5C4.3125 11.999 3.75 11.4365 3.75 10.749V8.24902C3.75 7.56152 4.3125 6.99902 5 6.99902H7.5C8.1875 6.99902 8.75 7.56152 8.75 8.24902V10.749C8.75 11.4365 8.1875 11.999 7.5 11.999Z" ></path>
    </g>
    <defs>
      <clipPath id="clip0_375_2495">
        <rect width="30" height="30" transform="translate(0 0.5)"></rect>
      </clipPath>
    </defs>
  </symbol>
  <symbol  xmlns="http://www.w3.org/2000/svg" viewBox="0 0 30 31" id="grid_view1">
    <g clip-path="url(#clip0_375_2479)">
      <path d="M5 18H7.5C8.1875 18 8.75 17.4375 8.75 16.75V14.25C8.75 13.5625 8.1875 13 7.5 13H5C4.3125 13 3.75 13.5625 3.75 14.25V16.75C3.75 17.4375 4.3125 18 5 18ZM5 24H7.5C8.1875 24 8.75 23.4375 8.75 22.75V20.25C8.75 19.5625 8.1875 19 7.5 19H5C4.3125 19 3.75 19.5625 3.75 20.25L3.75 22.75C3.75 23.4375 4.3125 24 5 24ZM5 12H7.5C8.1875 12 8.75 11.4375 8.75 10.75V8.25C8.75 7.5625 8.1875 7 7.5 7H5C4.3125 7 3.75 7.5625 3.75 8.25V10.75C3.75 11.4375 4.3125 12 5 12ZM10 8.25V22.75C10 23.4375 10.5625 24 11.25 24H23.75C24.4375 24 25 23.4375 25 22.75V8.25C25 7.5625 24.4375 7 23.75 7H11.25C10.5625 7 10 7.5625 10 8.25Z"></path>
    </g>
    <defs>
      <clipPath id="clip0_375_2479">
        <rect width="30" height="30" transform="translate(0 0.5)"></rect>
      </clipPath>
    </defs>
  </symbol>
  <symbol  xmlns="http://www.w3.org/2000/svg" viewBox="0 0 30 31" id="grid_view3">
    <g clip-path="url(#clip0_375_2638)">
      <path d="M11.5384 17.9993H26.4999C27.3076 17.9993 27.9685 17.4002 27.9685 16.668V14.3307C27.9685 13.5984 27.3076 12.9993 26.4999 12.9993H11.5384C10.7307 12.9993 10.0698 13.5984 10.0698 14.3307V16.668C10.0698 17.4002 10.7307 17.9993 11.5384 17.9993ZM11.5384 11.9993H26.4999C27.3076 11.9993 27.9685 11.4002 27.9685 10.668L27.9685 8.33038C27.9685 7.59814 27.3076 6.99902 26.5 6.99902H11.5384C10.7307 6.99902 10.0698 7.59814 10.0698 8.33038V10.668C10.0698 11.4002 10.7307 11.9993 11.5384 11.9993Z" ></path>
      <path d="M26.4999 23.9993H11.5384C10.7307 23.9993 10.0698 23.4002 10.0698 22.668V20.3307C10.0698 19.5984 10.7307 18.9993 11.5384 18.9993H26.4999C27.3076 18.9993 27.9685 19.5984 27.9685 20.3307V22.668C27.9685 23.4002 27.3076 23.9993 26.4999 23.9993Z" ></path>
      <path d="M7.5 17.999H5C4.3125 17.999 3.75 17.4365 3.75 16.749V14.249C3.75 13.5615 4.3125 12.999 5 12.999H7.5C8.1875 12.999 8.75 13.5615 8.75 14.249V16.749C8.75 17.4365 8.1875 17.999 7.5 17.999Z" ></path>
      <path d="M7.5 23.999H5C4.3125 23.999 3.75 23.4365 3.75 22.749V20.249C3.75 19.5615 4.3125 18.999 5 18.999H7.5C8.1875 18.999 8.75 19.5615 8.75 20.249V22.749C8.75 23.4365 8.1875 23.999 7.5 23.999Z" ></path>
      <path d="M7.5 11.999H5C4.3125 11.999 3.75 11.4365 3.75 10.749V8.49902C3.75 7.81152 4.3125 7.24902 5 7.24902H7.5C8.1875 7.24902 8.75 7.81152 8.75 8.49902V10.749C8.75 11.4365 8.1875 11.999 7.5 11.999Z" ></path>
    </g>
    <defs>
      <clipPath id="clip0_375_2638">
        <rect width="30" height="30" transform="translate(0 0.5)"></rect>
      </clipPath>
    </defs>
  </symbol>
  <symbol  xmlns="http://www.w3.org/2000/svg" viewBox="0 0 30 20" id="cloud_icon">
    <path d="M24.1875 7.55C23.3375 3.2375 19.55 0 15 0C11.3875 0 8.25 2.05 6.6875 5.05C2.925 5.45 0 8.6375 0 12.5C0 16.6375 3.3625 20 7.5 20H23.75C27.2 20 30 17.2 30 13.75C30 10.45 27.4375 7.775 24.1875 7.55Z"  ></path>
  </symbol>
  <symbol  xmlns="http://www.w3.org/2000/svg" viewBox="0 0 25 25" id="play_arrow_icon">
    <path d="M8.5 7.31976V17.6798C8.5 18.4698 9.37 18.9498 10.04 18.5198L18.18 13.3398C18.8 12.9498 18.8 12.0498 18.18 11.6498L10.04 6.47976C9.37 6.04976 8.5 6.52976 8.5 7.31976Z"></path>
  </symbol>
  <symbol  xmlns="http://www.w3.org/2000/svg" viewBox="0 0 24 26" id="scedule_icon">
    <path d="M20.75 3H19.5V1.75C19.5 1.0625 18.9375 0.5 18.25 0.5C17.5625 0.5 17 1.0625 17 1.75V3H7V1.75C7 1.0625 6.4375 0.5 5.75 0.5C5.0625 0.5 4.5 1.0625 4.5 1.75V3H3.25C1.8625 3 0.7625 4.125 0.7625 5.5L0.75 23C0.75 24.375 1.8625 25.5 3.25 25.5H20.75C22.125 25.5 23.25 24.375 23.25 23V5.5C23.25 4.125 22.125 3 20.75 3ZM20.75 21.75C20.75 22.4375 20.1875 23 19.5 23H4.5C3.8125 23 3.25 22.4375 3.25 21.75V9.25H20.75V21.75ZM5.75 11.75H8.25V14.25H5.75V11.75ZM10.75 11.75H13.25V14.25H10.75V11.75ZM15.75 11.75H18.25V14.25H15.75V11.75Z"  ></path>
  </symbol>
  <symbol  xmlns="http://www.w3.org/2000/svg" viewBox="0 0 26 26" id="achivments_icon">
    <path d="M12.9875 0.5C6.0875 0.5 0.5 6.1 0.5 13C0.5 19.9 6.0875 25.5 12.9875 25.5C19.9 25.5 25.5 19.9 25.5 13C25.5 6.1 19.9 0.5 12.9875 0.5ZM17.025 19.7375L13 17.3125L8.975 19.7375C8.5 20.025 7.9125 19.6 8.0375 19.0625L9.1 14.4875L5.5625 11.425C5.15 11.0625 5.375 10.375 5.925 10.325L10.6 9.925L12.425 5.6125C12.6375 5.1 13.3625 5.1 13.575 5.6125L15.4 9.9125L20.075 10.3125C20.625 10.3625 20.85 11.05 20.425 11.4125L16.8875 14.475L17.95 19.0625C18.075 19.6 17.5 20.025 17.025 19.7375Z"  ></path>
  </symbol>
  <symbol  xmlns="http://www.w3.org/2000/svg" viewBox="0 0 26 26" id="time_played_icon">
    <path d="M18.3 7.7C16.8375 6.2375 14.925 5.5 13 5.5V13L7.7 18.3C10.625 21.225 15.375 21.225 18.3125 18.3C21.2375 15.375 21.2375 10.625 18.3 7.7ZM13 0.5C6.1 0.5 0.5 6.1 0.5 13C0.5 19.9 6.1 25.5 13 25.5C19.9 25.5 25.5 19.9 25.5 13C25.5 6.1 19.9 0.5 13 0.5ZM13 23C7.475 23 3 18.525 3 13C3 7.475 7.475 3 13 3C18.525 3 23 7.475 23 13C23 18.525 18.525 23 13 23Z"  ></path>
  </symbol>
  <symbol  xmlns="http://www.w3.org/2000/svg" viewBox="0 0 24 18" id="controller_icon">
    <path d="M23.1767 13.7713L21.905 4.83468C21.5784 2.53634 19.6067 0.833008 17.285 0.833008H6.71503C4.39337 0.833008 2.4217 2.53634 2.09504 4.83468L0.823369 13.7713C0.566702 15.568 1.95504 17.1663 3.76337 17.1663C4.5567 17.1663 5.30337 16.8513 5.86337 16.2913L8.50003 13.6663H15.5L18.125 16.2913C18.685 16.8513 19.4434 17.1663 20.225 17.1663C22.045 17.1663 23.4334 15.568 23.1767 13.7713ZM10.8334 7.83301H8.50003V10.1663H7.33337V7.83301H5.00004V6.66634H7.33337V4.33301H8.50003V6.66634H10.8334V7.83301ZM15.5 6.66634C14.8584 6.66634 14.3334 6.14134 14.3334 5.49967C14.3334 4.85801 14.8584 4.33301 15.5 4.33301C16.1417 4.33301 16.6667 4.85801 16.6667 5.49967C16.6667 6.14134 16.1417 6.66634 15.5 6.66634ZM17.8334 10.1663C17.1917 10.1663 16.6667 9.64134 16.6667 8.99967C16.6667 8.35801 17.1917 7.83301 17.8334 7.83301C18.475 7.83301 19 8.35801 19 8.99967C19 9.64134 18.475 10.1663 17.8334 10.1663Z" ></path>
  </symbol>
  <symbol  xmlns="http://www.w3.org/2000/svg" viewBox="0 0 22 22" id="info_icon">
    <path d="M11.0001 0.166992C5.02008 0.166992 0.166748 5.02033 0.166748 11.0003C0.166748 16.9803 5.02008 21.8337 11.0001 21.8337C16.9801 21.8337 21.8334 16.9803 21.8334 11.0003C21.8334 5.02033 16.9801 0.166992 11.0001 0.166992ZM11.0001 16.417C10.4042 16.417 9.91675 15.9295 9.91675 15.3337V11.0003C9.91675 10.4045 10.4042 9.91699 11.0001 9.91699C11.5959 9.91699 12.0834 10.4045 12.0834 11.0003V15.3337C12.0834 15.9295 11.5959 16.417 11.0001 16.417ZM12.0834 7.75033H9.91675V5.58366H12.0834V7.75033Z" ></path>
  </symbol>
  <symbol  xmlns="http://www.w3.org/2000/svg" viewBox="0 0 27 18" id="people_icon">
    <path d="M18.4668 7.83301C20.4035 7.83301 21.9551 6.26967 21.9551 4.33301C21.9551 2.39634 20.4035 0.833008 18.4668 0.833008C16.5301 0.833008 14.9668 2.39634 14.9668 4.33301C14.9668 6.26967 16.5301 7.83301 18.4668 7.83301ZM9.13346 7.83301C11.0701 7.83301 12.6218 6.26967 12.6218 4.33301C12.6218 2.39634 11.0701 0.833008 9.13346 0.833008C7.1968 0.833008 5.63346 2.39634 5.63346 4.33301C5.63346 6.26967 7.1968 7.83301 9.13346 7.83301ZM9.13346 10.1663C6.41513 10.1663 0.966797 11.5313 0.966797 14.2497V15.9997C0.966797 16.6413 1.4918 17.1663 2.13346 17.1663H16.1335C16.7751 17.1663 17.3001 16.6413 17.3001 15.9997V14.2497C17.3001 11.5313 11.8518 10.1663 9.13346 10.1663ZM18.4668 10.1663C18.1285 10.1663 17.7435 10.1897 17.3351 10.2247C17.3585 10.2363 17.3701 10.2597 17.3818 10.2713C18.7118 11.2397 19.6335 12.5347 19.6335 14.2497V15.9997C19.6335 16.408 19.5518 16.8047 19.4235 17.1663H25.4668C26.1085 17.1663 26.6335 16.6413 26.6335 15.9997V14.2497C26.6335 11.5313 21.1851 10.1663 18.4668 10.1663Z" ></path>
  </symbol>
  <symbol  xmlns="http://www.w3.org/2000/svg" viewBox="0 0 22 21" id="star_icon">
    <path d="M20.5624 7.3L14.5124 6.775L12.1499 1.2125C11.7249 0.2 10.2749 0.2 9.84991 1.2125L7.48741 6.7875L1.44991 7.3C0.349908 7.3875 -0.100092 8.7625 0.737408 9.4875L5.32491 13.4625L3.94991 19.3625C3.69991 20.4375 4.86241 21.2875 5.81241 20.7125L10.9999 17.5875L16.1874 20.725C17.1374 21.3 18.2999 20.45 18.0499 19.375L16.6749 13.4625L21.2624 9.4875C22.0999 8.7625 21.6624 7.3875 20.5624 7.3ZM10.9999 15.25L6.29991 18.0875L7.54991 12.7375L3.39991 9.1375L8.87491 8.6625L10.9999 3.625L13.1374 8.675L18.6124 9.15L14.4624 12.75L15.7124 18.1L10.9999 15.25Z" ></path>
  </symbol>
  <symbol  xmlns="http://www.w3.org/2000/svg" viewBox="0 0 40 40" id="tools_icon">
    <g clip-path="url(#clip0_523_6756)">
      <path d="M34.9835 29.9833L26.7501 21.75L23.2168 25.2833L31.4501 33.5167C32.4335 34.5 34.0168 34.5 34.9835 33.5167C35.9501 32.5333 35.9501 30.95 34.9835 29.9833Z"></path>
      <path d="M29.4167 16.667C32.6334 16.667 35.2501 14.0503 35.2501 10.8337C35.2501 9.86699 34.9834 8.96699 34.5667 8.16699L30.0667 12.667L27.5834 10.1837L32.0834 5.68366C31.2834 5.26699 30.3834 5.00033 29.4167 5.00033C26.2001 5.00033 23.5834 7.61699 23.5834 10.8337C23.5834 11.517 23.7167 12.167 23.9334 12.767L20.8501 15.8503L17.8834 12.8837C18.5334 12.2337 18.5334 11.1837 17.8834 10.5337L16.7001 9.35033L20.2334 5.81699C18.2834 3.86699 15.1167 3.86699 13.1667 5.81699L8.46673 10.5337C7.81673 11.1837 7.81673 12.2337 8.46673 12.8837L9.65006 14.067H5.41673C5.10007 14.067 4.80007 14.1837 4.5834 14.417C4.11673 14.8837 4.11673 15.617 4.5834 16.0837L8.81673 20.317C9.2834 20.7837 10.0167 20.7837 10.4834 20.317C10.7001 20.1003 10.8334 19.8003 10.8334 19.4837V15.2503L12.0001 16.417C12.6501 17.067 13.7001 17.067 14.3501 16.417L17.3167 19.3837L6.7334 29.967C5.75007 30.9503 5.75007 32.5337 6.7334 33.5003C7.71673 34.4837 9.30007 34.4837 10.2667 33.5003L27.4667 16.317C28.0834 16.5337 28.7334 16.667 29.4167 16.667Z"></path>
    </g>
    <defs>
      <clipPath id="clip0_523_6756">
        <rect width="40" height="40"></rect>
      </clipPath>
    </defs>
  </symbol>
</svg>