<svg width="0" height="0" class="hidden">
  <symbol xmlns="http://www.w3.org/2000/svg" viewBox="0 0 25 25" id="notifications">
    <g clip-path="url(#clip0_1004_415)">
      <path
        d="M12.5 22.9165C13.6458 22.9165 14.5833 21.979 14.5833 20.8332H10.4167C10.4167 21.979 11.3437 22.9165 12.5 22.9165ZM18.75 16.6665V11.4582C18.75 8.26025 17.0417 5.58317 14.0625 4.87484V4.1665C14.0625 3.30192 13.3646 2.604 12.5 2.604C11.6354 2.604 10.9375 3.30192 10.9375 4.1665V4.87484C7.94791 5.58317 6.24999 8.24984 6.24999 11.4582V16.6665L4.90624 18.0103C4.24999 18.6665 4.70833 19.7915 5.63541 19.7915H19.3542C20.2812 19.7915 20.75 18.6665 20.0937 18.0103L18.75 16.6665Z"></path>
    </g>
    <defs>
      <clipPath id="clip0_1004_415">
        <rect width="25" height="25"></rect>
      </clipPath>
    </defs>
  </symbol>
  <symbol xmlns="http://www.w3.org/2000/svg" viewBox="0 0 25 25" id="people">
    <g clip-path="url(#clip0_1004_406)">
      <path
        d="M16.6666 11.4585C18.3958 11.4585 19.7812 10.0627 19.7812 8.3335C19.7812 6.60433 18.3958 5.2085 16.6666 5.2085C14.9375 5.2085 13.5416 6.60433 13.5416 8.3335C13.5416 10.0627 14.9375 11.4585 16.6666 11.4585ZM8.33329 11.4585C10.0625 11.4585 11.4479 10.0627 11.4479 8.3335C11.4479 6.60433 10.0625 5.2085 8.33329 5.2085C6.60413 5.2085 5.20829 6.60433 5.20829 8.3335C5.20829 10.0627 6.60413 11.4585 8.33329 11.4585ZM8.33329 13.5418C5.90621 13.5418 1.04163 14.7606 1.04163 17.1877V18.7502C1.04163 19.3231 1.51038 19.7918 2.08329 19.7918H14.5833C15.1562 19.7918 15.625 19.3231 15.625 18.7502V17.1877C15.625 14.7606 10.7604 13.5418 8.33329 13.5418ZM16.6666 13.5418C16.3645 13.5418 16.0208 13.5627 15.6562 13.5939C15.677 13.6043 15.6875 13.6252 15.6979 13.6356C16.8854 14.5002 17.7083 15.6564 17.7083 17.1877V18.7502C17.7083 19.1147 17.6354 19.4689 17.5208 19.7918H22.9166C23.4895 19.7918 23.9583 19.3231 23.9583 18.7502V17.1877C23.9583 14.7606 19.0937 13.5418 16.6666 13.5418Z"></path>
    </g>
    <defs>
      <clipPath id="clip0_1004_406">
        <rect width="25" height="25"></rect>
      </clipPath>
    </defs>
  </symbol>
  <symbol xmlns="http://www.w3.org/2000/svg" viewBox="0 0 7 12" id="arrow">
    <path
      d="M0.29002 2.12002L4.17002 6.00002L0.29002 9.88002C-0.0999802 10.27 -0.0999803 10.9 0.29002 11.29C0.680019 11.68 1.31002 11.68 1.70002 11.29L6.29002 6.70002C6.68002 6.31002 6.68002 5.68002 6.29002 5.29002L1.70002 0.70002C1.31002 0.31002 0.68002 0.31002 0.29002 0.70002C-0.0899797 1.09002 -0.0999795 1.73002 0.29002 2.12002Z"
    ></path>
  </symbol>
  <symbol xmlns="http://www.w3.org/2000/svg" viewBox="0 0 15 15" id="close">
    <path
      d="M14.0625 0.947917C13.6562 0.541667 13 0.541667 12.5937 0.947917L7.5 6.03125L2.40625 0.9375C2 0.53125 1.34375 0.53125 0.9375 0.9375C0.53125 1.34375 0.53125 2 0.9375 2.40625L6.03125 7.5L0.9375 12.5937C0.53125 13 0.53125 13.6562 0.9375 14.0625C1.34375 14.4687 2 14.4687 2.40625 14.0625L7.5 8.96875L12.5937 14.0625C13 14.4687 13.6562 14.4687 14.0625 14.0625C14.4687 13.6562 14.4687 13 14.0625 12.5937L8.96875 7.5L14.0625 2.40625C14.4583 2.01042 14.4583 1.34375 14.0625 0.947917Z"
    ></path>
  </symbol>
  <symbol xmlns="http://www.w3.org/2000/svg" viewBox="0 0 19 16" id="content_copy">
    <path
      d="M5.31931 0.0561523H16.9344C18.0959 0.0561523 18.3423 0.682891 18.3423 1.4489V10.5018C18.3423 10.8848 18.2191 11.3496 17.6383 11.3496C17.0576 11.3496 16.9344 10.8848 16.9344 10.5018V2.14528C16.9344 1.76227 16.4593 1.4489 15.8785 1.4489H5.31931C4.73856 1.4489 4.2634 1.13554 4.2634 0.752529C4.2634 0.369522 4.73856 0.0561523 5.31931 0.0561523ZM2.15158 2.84169H13.7667C14.9282 2.84169 15.5265 3.46843 15.5265 4.23444V13.9837C15.5265 14.7497 14.9282 15.3765 13.7667 15.3765H2.15158C0.990065 15.3765 0.743641 14.7497 0.743641 13.9837V4.23444C0.743641 3.46843 0.990065 2.84169 2.15158 2.84169ZM3.20749 13.9837H12.7108C13.2915 13.9837 13.7667 13.6703 13.7667 13.2873V4.93082C13.7667 4.54781 13.2915 4.23444 12.7108 4.23444H3.20749C2.62674 4.23444 2.15158 4.54781 2.15158 4.93082V13.2873C2.15158 13.6703 2.62674 13.9837 3.20749 13.9837Z"
    ></path>
  </symbol>
  <symbol xmlns="http://www.w3.org/2000/svg" viewBox="0 0 13 3" id="minimize">
    <path
      d="M1.29167 0.626465H11.7083C12.2812 0.626465 12.75 1.09521 12.75 1.66813C12.75 2.24105 12.2812 2.7098 11.7083 2.7098H1.29167C0.71875 2.7098 0.25 2.24105 0.25 1.66813C0.25 1.09521 0.71875 0.626465 1.29167 0.626465Z"
    ></path>
  </symbol>
  <symbol xmlns="http://www.w3.org/2000/svg" viewBox="0 0 14 26" id="facebook-icon">
    <path
      d="M12.5037 9.25005H9.5V6.75005C9.5 5.46005 9.605 4.64755 11.4537 4.64755H12.5387C13.2287 4.64755 13.7887 4.08755 13.7887 3.39755V1.83005C13.7887 1.1763 13.2875 0.617547 12.635 0.573797C11.88 0.522547 11.1237 0.498797 10.3662 0.500047C6.975 0.500047 4.5 2.5713 4.5 6.3738V9.25005H2C1.31 9.25005 0.75 9.81005 0.75 10.5V13C0.75 13.69 1.31 14.25 2 14.25L4.5 14.2488V24.25C4.5 24.9401 5.06 25.5 5.75 25.5H8.25C8.94 25.5 9.5 24.9401 9.5 24.25V14.2463L12.2175 14.245C12.8525 14.245 13.3862 13.7688 13.4587 13.1375L13.745 10.6425C13.8312 9.9013 13.2512 9.25005 12.5037 9.25005Z"
    ></path>
  </symbol>
  <symbol xmlns="http://www.w3.org/2000/svg" viewBox="0 0 21 22" id="twitter-icon">
    <path
      d="M1.13831 0.5C0.38348 0.5 -0.0589785 1.35023 0.372688 1.96973L7.35902 11.9548L0.345344 20.1533C-0.108489 20.683 0.267469 21.5 0.965136 21.5H1.73988C2.08171 21.5 2.40688 21.35 2.62855 21.0898L8.73988 13.9303L13.3405 20.5042C13.778 21.1272 14.4916 21.5 15.2522 21.5H19.1419C19.8967 21.5 20.3392 20.6509 19.9075 20.0326L12.5361 9.48242L19.2171 1.65527C19.6044 1.20027 19.2812 0.5 18.6839 0.5H17.6972C17.3566 0.5 17.0325 0.648878 16.8108 0.907878L11.1621 7.51139L6.96025 1.49805C6.52392 0.872713 5.81147 0.5 5.04847 0.5H1.13831Z"
    ></path>
  </symbol>
  <symbol xmlns="http://www.w3.org/2000/svg" viewBox="0 0 20 20" id="date_range">
    <g clip-path="url(#clip0_460_15472)">
      <path
        d="M15.8333 3.33268H15V2.49935C15 2.04102 14.625 1.66602 14.1667 1.66602C13.7083 1.66602 13.3333 2.04102 13.3333 2.49935V3.33268H6.66667V2.49935C6.66667 2.04102 6.29167 1.66602 5.83333 1.66602C5.375 1.66602 5 2.04102 5 2.49935V3.33268H4.16667C3.24167 3.33268 2.50833 4.08268 2.50833 4.99935L2.5 16.666C2.5 17.5827 3.24167 18.3327 4.16667 18.3327H15.8333C16.75 18.3327 17.5 17.5827 17.5 16.666V4.99935C17.5 4.08268 16.75 3.33268 15.8333 3.33268ZM15.8333 15.8327C15.8333 16.291 15.4583 16.666 15 16.666H5C4.54167 16.666 4.16667 16.291 4.16667 15.8327V7.49935H15.8333V15.8327ZM5.83333 9.16602H7.5V10.8327H5.83333V9.16602ZM9.16667 9.16602H10.8333V10.8327H9.16667V9.16602ZM12.5 9.16602H14.1667V10.8327H12.5V9.16602Z"
      ></path>
    </g>
    <defs>
      <clipPath id="clip0_460_15472">
        <rect width="20" height="20"></rect>
      </clipPath>
    </defs>
  </symbol>
  <symbol xmlns="http://www.w3.org/2000/svg" viewBox="0 0 21 22" id="stars">
    <g clip-path="url(#clip0_770_11303)">
      <path
        d="M10.4912 2.75C15.0541 2.75 18.75 6.44647 18.75 11C18.75 15.5535 15.0541 19.25 10.4912 19.25C5.93802 19.25 2.25 15.5545 2.25 11C2.25 6.4455 5.93802 2.75002 10.4912 2.75ZM11.3623 5.63379C11.0415 4.8685 9.95726 4.86827 9.63672 5.63379L8.47656 8.375L5.50488 8.62891L5.50195 8.62988C4.68385 8.7045 4.34228 9.7272 4.96387 10.2734L4.9668 10.2754L7.21484 12.2217L6.53906 15.1309C6.35081 15.9417 7.23263 16.57 7.93945 16.1436L7.94043 16.1445L10.5 14.6025L13.0596 16.1445V16.1436C13.7332 16.5508 14.5304 16.0058 14.4746 15.2783L14.4521 15.1309L13.7754 12.2129L16.0215 10.2686L16.0225 10.2695C16.6611 9.72469 16.3177 8.69586 15.498 8.62109L15.4951 8.62012L12.5225 8.36621L11.3623 5.63379Z"
        stroke="#76808C"></path>
    </g>
    <defs>
      <clipPath id="clip0_770_11303">
        <rect width="21" height="21" transform="translate(0 0.5)"></rect>
      </clipPath>
    </defs>
  </symbol>
  <symbol xmlns="http://www.w3.org/2000/svg" viewBox="0 0 20 20" id="timelapse">
    <g clip-path="url(#clip0_460_15478)">
      <path
        d="M13.5332 6.46602C12.5582 5.49102 11.2832 4.99935 9.99984 4.99935V9.99935L6.4665 13.5327C8.4165 15.4827 11.5832 15.4827 13.5415 13.5327C15.4915 11.5827 15.4915 8.41602 13.5332 6.46602ZM9.99984 1.66602C5.39984 1.66602 1.6665 5.39935 1.6665 9.99935C1.6665 14.5993 5.39984 18.3327 9.99984 18.3327C14.5998 18.3327 18.3332 14.5993 18.3332 9.99935C18.3332 5.39935 14.5998 1.66602 9.99984 1.66602ZM9.99984 16.666C6.3165 16.666 3.33317 13.6827 3.33317 9.99935C3.33317 6.31602 6.3165 3.33268 9.99984 3.33268C13.6832 3.33268 16.6665 6.31602 16.6665 9.99935C16.6665 13.6827 13.6832 16.666 9.99984 16.666Z"
      ></path>
    </g>
    <defs>
      <clipPath id="clip0_460_15478">
        <rect width="20" height="20"></rect>
      </clipPath>
    </defs>
  </symbol>
  <symbol xmlns="http://www.w3.org/2000/svg" viewBox="0 0 15 15" id="search-icon">
    <path
      d="M10.9167 9.6667H10.2584L10.025 9.4417C11.025 8.27503 11.5417 6.68337 11.2584 4.9917C10.8667 2.67503 8.93337 0.825033 6.60003 0.5417C3.07503 0.108366 0.108366 3.07503 0.5417 6.60003C0.825033 8.93337 2.67503 10.8667 4.9917 11.2584C6.68337 11.5417 8.27503 11.025 9.4417 10.025L9.6667 10.2584V10.9167L13.2084 14.4584C13.55 14.8 14.1084 14.8 14.45 14.4584C14.7917 14.1167 14.7917 13.5584 14.45 13.2167L10.9167 9.6667ZM5.9167 9.6667C3.8417 9.6667 2.1667 7.9917 2.1667 5.9167C2.1667 3.8417 3.8417 2.1667 5.9167 2.1667C7.9917 2.1667 9.6667 3.8417 9.6667 5.9167C9.6667 7.9917 7.9917 9.6667 5.9167 9.6667Z"
    ></path>
  </symbol>
  <symbol xmlns="http://www.w3.org/2000/svg" viewBox="0 0 22 22" id="settings-icon">
    <path
      d="M19.0491 12.0615C19.0924 11.7148 19.1249 11.3682 19.1249 10.9998C19.1249 10.6315 19.0924 10.2848 19.0491 9.93817L21.3349 8.15067C21.5408 7.98817 21.5949 7.69567 21.4649 7.45734L19.2983 3.709C19.1683 3.47067 18.8758 3.384 18.6374 3.47067L15.9399 4.554C15.3766 4.12067 14.7699 3.76317 14.1091 3.49234L13.6974 0.621504C13.6649 0.361504 13.4374 0.166504 13.1666 0.166504H8.83328C8.56245 0.166504 8.33495 0.361504 8.30245 0.621504L7.89078 3.49234C7.22995 3.76317 6.62328 4.1315 6.05995 4.554L3.36245 3.47067C3.11328 3.37317 2.83162 3.47067 2.70162 3.709L0.534948 7.45734C0.394115 7.69567 0.459115 7.98817 0.664948 8.15067L2.95078 9.93817C2.90745 10.2848 2.87495 10.6423 2.87495 10.9998C2.87495 11.3573 2.90745 11.7148 2.95078 12.0615L0.664948 13.849C0.459115 14.0115 0.404948 14.304 0.534948 14.5423L2.70162 18.2907C2.83162 18.529 3.12411 18.6157 3.36245 18.529L6.05995 17.4457C6.62328 17.879 7.22995 18.2365 7.89078 18.5073L8.30245 21.3782C8.33495 21.6382 8.56245 21.8332 8.83328 21.8332H13.1666C13.4374 21.8332 13.6649 21.6382 13.6974 21.3782L14.1091 18.5073C14.7699 18.2365 15.3766 17.8682 15.9399 17.4457L18.6374 18.529C18.8866 18.6265 19.1683 18.529 19.2983 18.2907L21.4649 14.5423C21.5949 14.304 21.5408 14.0115 21.3349 13.849L19.0491 12.0615ZM10.9999 14.7915C8.90912 14.7915 7.20828 13.0907 7.20828 10.9998C7.20828 8.909 8.90912 7.20817 10.9999 7.20817C13.0908 7.20817 14.7916 8.909 14.7916 10.9998C14.7916 13.0907 13.0908 14.7915 10.9999 14.7915Z"
    ></path>
  </symbol>
  <symbol xmlns="http://www.w3.org/2000/svg" viewBox="0 0 21 19" id="whish_heart_icon">
    <path
      d="M18.1602 1.48998C15.5202 -0.310017 12.2602 0.529983 10.5002 2.58998C8.74021 0.529983 5.48021 -0.320017 2.84021 1.48998C1.44021 2.44998 0.560213 4.06998 0.500213 5.77998C0.360213 9.65998 3.80021 12.77 9.05021 17.54L9.15021 17.63C9.91021 18.32 11.0802 18.32 11.8402 17.62L11.9502 17.52C17.2002 12.76 20.6302 9.64998 20.5002 5.76998C20.4402 4.06998 19.5602 2.44998 18.1602 1.48998ZM10.6002 16.05L10.5002 16.15L10.4002 16.05C5.64021 11.74 2.50021 8.88998 2.50021 5.99998C2.50021 3.99998 4.00021 2.49998 6.00021 2.49998C7.54021 2.49998 9.04021 3.48998 9.57021 4.85998H11.4402C11.9602 3.48998 13.4602 2.49998 15.0002 2.49998C17.0002 2.49998 18.5002 3.99998 18.5002 5.99998C18.5002 8.88998 15.3602 11.74 10.6002 16.05Z"
    ></path>
  </symbol>
  <symbol xmlns="http://www.w3.org/2000/svg" viewBox="0 0 26 25" id="windows_icon">
    <path
      d="M20.3893 2.08534C20.2383 2.07831 20.0859 2.08752 19.9336 2.11383L13.8626 3.17177C13.3637 3.25927 13 3.69091 13 4.19716V10.4166C13 10.9916 13.4667 11.4583 14.0417 11.4583H21.3333C21.9083 11.4583 22.375 10.9916 22.375 10.4166V4.16664C22.375 3.54998 22.1043 2.96846 21.6324 2.57159C21.2785 2.27393 20.8423 2.10644 20.3893 2.08534ZM9.93197 3.88385C9.855 3.87983 9.77565 3.88416 9.69596 3.89809L5.35026 4.65492C4.35339 4.82888 3.625 5.69524 3.625 6.70774V10.4166C3.625 10.9916 4.09167 11.4583 4.66667 11.4583H9.875C10.45 11.4583 10.9167 10.9916 10.9167 10.4166V4.92348C10.9167 4.35746 10.4707 3.91193 9.93197 3.88385ZM4.66667 13.5416C4.09167 13.5416 3.625 14.0083 3.625 14.5833V18.2922C3.625 19.3047 4.35234 20.1711 5.35026 20.345L9.69596 21.1019C10.3335 21.2123 10.9167 20.7233 10.9167 20.0765V14.5833C10.9167 14.0083 10.45 13.5416 9.875 13.5416H4.66667ZM14.0417 13.5416C13.4667 13.5416 13 14.0083 13 14.5833V20.8028C13 21.309 13.3637 21.7417 13.8626 21.8282L19.9336 22.8861C20.0534 22.907 20.1739 22.9187 20.2937 22.9187C20.7802 22.9187 21.2532 22.7471 21.6324 22.4284C22.1043 22.0304 22.375 21.4489 22.375 20.8333V14.5833C22.375 14.0083 21.9083 13.5416 21.3333 13.5416H14.0417Z"
    ></path>
  </symbol>
  <symbol  xmlns="http://www.w3.org/2000/svg" viewBox="0 0 13 13" id="add_icon">
    <path
      d="M11.3333 7.16667H7.16667V11.3333C7.16667 11.7917 6.79167 12.1667 6.33333 12.1667C5.875 12.1667 5.5 11.7917 5.5 11.3333V7.16667H1.33333C0.875 7.16667 0.5 6.79167 0.5 6.33333C0.5 5.875 0.875 5.5 1.33333 5.5H5.5V1.33333C5.5 0.875 5.875 0.5 6.33333 0.5C6.79167 0.5 7.16667 0.875 7.16667 1.33333V5.5H11.3333C11.7917 5.5 12.1667 5.875 12.1667 6.33333C12.1667 6.79167 11.7917 7.16667 11.3333 7.16667Z"
      ></path>
  </symbol>
</svg>